PathFileType	4	(x/y/z)	S01_P20_T22
DataRate	CameraRate	NumFrames	NumMarkers	Units	OrigDataRate	OrigDataStartFrame	OrigNumFrames
240	240	11	51	mm	240	51	404
Frame#	Time	Sternum			R.Acromium			L.Acromium			Top.Head			R.ASIS			L.ASIS			R.PSIS			L.PSIS			R.Great.Tro			L.Great.Tro			R.Iliac.Crest			L.Iliac.Crest			V.Sacral			R.Thigh.Upper.Post			R.Thigh.Lower.Ant			R.Thigh.Lower.Post			R.Thigh.Upper.Ant			R.Knee.Lat			R.Knee.Med			R.Shank.Upper.Post			R.Shank.Lower.Ant			R.Shank.Lower.Post			R.Shank.Upper.Ant			R.Ankle.Lat			R.Ankle.Med			R.Heel.Upper			R.Heel.Med			R.Heel.Lat			R.Toe.Lat			R.Toe.Med			R.Toe.Tip			L.Thigh.Upper.Post			L.Thigh.Lower.Ant			L.Thigh.Lower.Post			L.Thigh.Upper.Ant			L.Knee.Lat			L.Knee.Med			L.Shank.Upper.Post			L.Shank.Lower.Ant			L.Shank.Lower.Post			L.Shank.Upper.Ant			L.Ankle.Lat			L.Ankle.Med			L.Heel.Upper			L.Heel.Med			L.Heel.Lat			L.Toe.Lat			L.Toe.Med			L.Toe.Tip			Cervical.Spine			Back			
		X1	Y1	Z1	X2	Y2	Z2	X3	Y3	Z3	X4	Y4	Z4	X5	Y5	Z5	X6	Y6	Z6	X7	Y7	Z7	X8	Y8	Z8	X9	Y9	Z9	X10	Y10	Z10	X11	Y11	Z11	X12	Y12	Z12	X13	Y13	Z13	X14	Y14	Z14	X15	Y15	Z15	X16	Y16	Z16	X17	Y17	Z17	X18	Y18	Z18	X19	Y19	Z19	X20	Y20	Z20	X21	Y21	Z21	X22	Y22	Z22	X23	Y23	Z23	X24	Y24	Z24	X25	Y25	Z25	X26	Y26	Z26	X27	Y27	Z27	X28	Y28	Z28	X29	Y29	Z29	X30	Y30	Z30	X31	Y31	Z31	X32	Y32	Z32	X33	Y33	Z33	X34	Y34	Z34	X35	Y35	Z35	X36	Y36	Z36	X37	Y37	Z37	X38	Y38	Z38	X39	Y39	Z39	X40	Y40	Z40	X41	Y41	Z41	X42	Y42	Z42	X43	Y43	Z43	X44	Y44	Z44	X45	Y45	Z45	X46	Y46	Z46	X47	Y47	Z47	X48	Y48	Z48	X49	Y49	Z49	X50	Y50	Z50	X51	Y51	Z51	

51	0.20833	NaN	NaN	NaN	-1287.3	1524.8	422.76	-1314.3	1531.2	92.247	-1273.3	1845.8	239.18	NaN	NaN	NaN	NaN	NaN	NaN	-1460	1061.4	313.26	-1455.7	1057.4	209.87	-1311.3	968.1	499.63	-1306.2	965.73	70.034	-1315.1	1120.4	476.54	-1317.7	1092.3	70.837	-1470.3	1022.8	259.51	-1261.2	665.78	500.9	-1174.9	606.49	501.92	-1239.2	578.65	491.99	-1194.3	695.31	507.96	-1214.7	520.32	495.61	-1178.7	512.84	351.14	-1356.2	453.08	495.66	NaN	NaN	NaN	-1411.9	412.66	478.35	-1324.7	397.71	478.02	-1566.6	291.41	426.13	-1528.2	264.95	338.23	-1621	328.14	356.73	-1630.4	300	325.3	-1648.4	306.82	386.61	-1573.9	139.73	464.89	-1525	115.2	349.79	NaN	NaN	NaN	-1269.7	678.5	99.049	-1170.5	628.89	102.05	-1240	594.11	119.46	-1209.6	714.01	80.423	-1171.7	523.56	115.4	-1152.9	534.11	254.55	-1227.9	391.96	92.936	-1176.4	297.09	121.4	-1234.8	313.62	95.213	-1167.6	373.18	113.5	-1281.8	106.36	127.95	-1256.2	115	226.44	-1351.8	72.786	171.98	-1341.8	47.597	204.95	-1342.9	47.041	142.82	-1134.2	41.902	109.17	-1109.1	47.703	231.85	-1047	61.801	180.1	-1393.6	1587	262.76	-1479.5	1277.7	288.09
52	0.2125	NaN	NaN	NaN	-1282.1	1526.2	422.35	-1308.6	1532.5	91.758	-1267.6	1847	238.51	NaN	NaN	NaN	NaN	NaN	NaN	-1454.3	1062.9	313.07	-1450	1058.8	209.68	-1305.5	969.98	499.67	-1300.7	966.6	70.043	-1309.7	1122.2	476.25	-1311.4	1093.6	70.791	-1464.7	1024.3	259.37	-1252.2	667.82	500.79	-1165.4	609.39	501.39	-1229.3	580.95	491.73	-1185.6	698.06	507.61	-1204.3	522.74	495.17	-1168.4	515.82	350.57	-1345.3	454.19	494.87	NaN	NaN	NaN	-1400.8	413.26	477.53	-1313.3	399.18	477.21	-1553.9	290.45	424.92	-1515.3	264.69	336.96	-1609.1	326.57	355.66	-1618.1	298.24	324.16	-1635.7	304.53	385.52	-1558.2	138.69	463.61	-1509.7	115.24	348.35	NaN	NaN	NaN	-1266.9	679.19	98.898	-1168	628.83	101.81	-1237.8	594.57	119.21	-1206.5	714.27	80.268	-1170.1	523.37	115.11	-1150.8	533.79	254.24	-1227	391.91	92.724	-1175.9	296.84	121.12	-1234.2	313.58	95.08	-1166.8	372.94	113.17	-1281.8	106.43	127.9	-1256.1	115.1	226.36	-1351.8	72.818	171.95	-1341.8	47.666	204.94	-1342.9	47.075	142.81	-1134.2	41.899	109.11	-1109.1	47.788	231.78	-1047	61.867	180.02	-1387.6	1588.2	262.14	-1473.8	1279.1	287.49
53	0.21667	NaN	NaN	NaN	-1276.9	1527.7	421.95	-1302.8	1533.8	91.292	-1261.9	1848.3	237.88	NaN	NaN	NaN	NaN	NaN	NaN	-1448.7	1064.4	312.91	-1444.4	1060.2	209.53	-1299.6	971.85	499.7	-1295.3	967.47	70.064	-1304.2	1124.1	475.94	-1305.1	1094.9	70.767	-1459.1	1025.7	259.26	-1243.2	669.87	500.69	-1155.9	612.3	500.81	-1219.5	583.28	491.47	-1177	700.8	507.22	-1194	525.18	494.69	-1158.2	518.82	349.98	-1334.5	455.17	494.07	NaN	NaN	NaN	-1389.6	413.7	476.69	-1301.9	400.56	476.4	-1541.1	289.2	423.72	-1502.1	264.16	335.71	-1597.2	324.65	354.6	-1605.6	296.14	323.03	-1622.9	301.91	384.46	-1542.3	137.47	462.35	-1494.1	115.08	346.92	NaN	NaN	NaN	-1264	679.9	98.763	-1165.5	628.77	101.58	-1235.6	595.04	118.98	-1203.4	714.52	80.12	-1168.5	523.19	114.81	-1148.8	533.48	253.93	-1226.2	391.87	92.522	-1175.3	296.6	120.84	-1233.7	313.56	94.953	-1166	372.72	112.85	-1281.7	106.51	127.85	-1256	115.21	226.28	-1351.8	72.853	171.92	-1341.8	47.737	204.93	-1342.9	47.112	142.8	-1134.2	41.893	109.05	-1109.1	47.871	231.71	-1047.1	61.932	179.94	-1381.7	1589.4	261.54	-1468.1	1280.5	286.91
54	0.22083	NaN	NaN	NaN	-1271.6	1529.1	421.57	-1297.1	1535.1	90.848	-1256.2	1849.6	237.31	NaN	NaN	NaN	NaN	NaN	NaN	-1443	1065.8	312.79	-1438.8	1061.6	209.41	-1293.6	973.71	499.71	-1289.8	968.35	70.097	-1298.7	1126	475.61	-1298.8	1096.3	70.761	-1453.5	1027.2	259.19	-1234.2	671.92	500.6	-1146.5	615.21	500.19	-1209.8	585.61	491.21	-1168.5	703.54	506.8	-1183.8	527.62	494.19	-1148.1	521.83	349.36	-1323.7	456.03	493.26	-1341.2	355.64	452.53	-1378.5	413.97	475.86	-1290.4	401.86	475.59	-1528.2	287.68	422.55	-1488.9	263.37	334.5	-1585.1	322.4	353.56	-1593.1	293.7	321.9	-1610.1	298.95	383.41	-1526.2	136.09	461.12	-1478.3	114.71	345.52	NaN	NaN	NaN	-1261.3	680.61	98.646	-1163.1	628.72	101.36	-1233.5	595.52	118.76	-1200.4	714.78	79.979	-1167	523.03	114.52	-1146.9	533.18	253.63	-1225.4	391.83	92.329	-1174.8	296.39	120.57	-1233.1	313.56	94.828	-1165.2	372.51	112.53	-1281.7	106.58	127.8	-1255.9	115.32	226.21	-1351.8	72.89	171.9	-1341.8	47.812	204.92	-1342.9	47.153	142.79	-1134.2	41.885	108.98	-1109.1	47.953	231.64	-1047.1	61.995	179.86	-1375.6	1590.6	260.97	-1462.5	1281.8	286.35
55	0.225	NaN	NaN	NaN	-1266.4	1530.5	421.2	-1291.3	1536.3	90.425	-1250.6	1850.8	236.78	NaN	NaN	NaN	NaN	NaN	NaN	-1437.4	1067.3	312.7	-1433.2	1062.9	209.32	-1287.6	975.54	499.72	-1284.4	969.22	70.143	-1293.2	1127.9	475.26	-1292.6	1097.6	70.771	-1448	1028.6	259.16	-1225.3	673.97	500.51	-1137.2	618.11	499.53	-1200.1	587.94	490.94	-1159.9	706.26	506.36	-1173.7	530.06	493.65	-1138.2	524.85	348.73	-1313	456.78	492.45	-1330.9	355.81	451.54	-1367.3	414.07	475.01	-1279	403.07	474.77	-1515.1	285.89	421.39	-1475.5	262.32	333.31	-1573	319.82	352.52	-1580.4	290.93	320.77	-1597.1	295.68	382.39	-1509.9	134.55	459.92	-1462.2	114.15	344.16	NaN	NaN	NaN	-1258.5	681.33	98.546	-1160.8	628.66	101.14	-1231.4	596	118.56	-1197.5	715.04	79.845	-1165.5	522.87	114.24	-1145	532.88	253.34	-1224.7	391.81	92.147	-1174.4	296.19	120.3	-1232.6	313.56	94.705	-1164.5	372.32	112.23	-1281.7	106.66	127.75	-1255.9	115.43	226.14	-1351.8	72.928	171.88	-1341.8	47.89	204.91	-1342.9	47.197	142.78	-1134.1	41.874	108.92	-1109.1	48.032	231.57	-1047.1	62.057	179.77	-1369.6	1591.8	260.42	-1456.7	1283.2	285.81
56	0.22917	NaN	NaN	NaN	-1261.1	1531.9	420.85	-1285.5	1537.6	90.02	-1244.9	1852	236.29	NaN	NaN	NaN	NaN	NaN	NaN	-1431.7	1068.6	312.65	-1427.6	1064.2	209.28	-1281.4	977.34	499.71	-1279.1	970.08	70.203	-1287.7	1129.8	474.91	-1286.5	1098.9	70.793	-1442.4	1030	259.16	-1216.5	676.02	500.42	-1128	620.99	498.84	-1190.5	590.27	490.68	-1151.5	708.95	505.89	-1163.7	532.49	493.07	-1128.3	527.85	348.09	-1302.4	457.4	491.63	-1320.1	355.95	450.52	-1356.1	414	474.15	-1267.6	404.2	473.95	-1502	283.86	420.25	-1462	261.04	332.17	-1560.7	316.93	351.5	-1567.6	287.83	319.64	-1584.1	292.1	381.37	-1493.5	132.86	458.76	-1445.8	113.42	342.84	NaN	NaN	NaN	-1255.8	682.05	98.466	-1158.4	628.61	100.93	-1229.4	596.5	118.38	-1194.6	715.29	79.72	-1164.1	522.74	113.96	-1143.1	532.59	253.07	-1223.9	391.8	91.973	-1173.9	296	120.04	-1232.1	313.57	94.585	-1163.8	372.14	111.93	-1281.6	106.73	127.71	-1255.8	115.53	226.06	-1351.8	72.97	171.87	-1341.8	47.971	204.91	-1342.9	47.244	142.78	-1134.1	41.861	108.86	-1109.1	48.11	231.5	-1047.1	62.117	179.69	-1363.5	1593	259.89	-1451	1284.5	285.29
57	0.23333	NaN	NaN	NaN	-1255.8	1533.3	420.51	-1279.8	1538.8	89.634	-1239.3	1853.2	235.85	NaN	NaN	NaN	NaN	NaN	NaN	-1426.1	1070	312.64	-1422	1065.5	209.27	-1275.3	979.12	499.7	-1273.8	970.92	70.275	-1282.1	1131.7	474.55	-1280.4	1100.1	70.824	-1436.8	1031.3	259.21	-1207.7	678.05	500.34	-1118.8	623.85	498.11	-1181	592.58	490.4	-1143.1	711.62	505.4	-1153.8	534.89	492.46	-1118.7	530.85	347.42	-1291.8	457.91	490.81	-1308.9	356.06	449.5	-1344.9	413.78	473.29	-1256.2	405.24	473.13	-1488.7	281.59	419.13	-1448.4	259.53	331.06	-1548.3	313.74	350.47	-1554.6	284.43	318.52	-1571	288.23	380.37	-1476.9	131.03	457.65	-1429.2	112.53	341.58	NaN	NaN	NaN	-1253.2	682.78	98.404	-1156.1	628.55	100.73	-1227.3	597	118.22	-1191.7	715.55	79.603	-1162.7	522.61	113.7	-1141.3	532.29	252.8	-1223.2	391.79	91.807	-1173.5	295.83	119.79	-1231.6	313.6	94.465	-1163.1	371.96	111.64	-1281.6	106.8	127.67	-1255.7	115.64	225.99	-1351.8	73.014	171.85	-1341.8	48.056	204.9	-1342.9	47.293	142.78	-1134.1	41.844	108.8	-1109.1	48.186	231.42	-1047.1	62.174	179.61	-1357.4	1594.1	259.39	-1445.3	1285.9	284.79
58	0.2375	NaN	NaN	NaN	-1250.4	1534.6	420.18	-1274	1540	89.266	-1233.7	1854.3	235.44	NaN	NaN	NaN	NaN	NaN	NaN	-1420.4	1071.3	312.67	-1416.4	1066.8	209.29	-1269	980.87	499.68	-1268.5	971.75	70.363	-1276.5	1133.6	474.19	-1274.4	1101.4	70.862	-1431.2	1032.6	259.29	-1199	680.06	500.26	-1109.7	626.68	497.35	-1171.6	594.87	490.12	-1134.7	714.25	504.89	-1144	537.28	491.82	-1109.1	533.82	346.75	-1281.2	458.3	489.98	-1297.3	356.14	448.47	-1333.7	413.4	472.41	-1244.8	406.21	472.32	-1475.4	279.09	418.03	-1434.8	257.82	330	-1535.8	310.26	349.46	-1541.4	280.73	317.41	-1557.7	284.09	379.39	-1460.2	129.06	456.58	-1412.4	111.49	340.37	NaN	NaN	NaN	-1250.5	683.5	98.362	-1153.9	628.49	100.53	-1225.4	597.5	118.07	-1188.9	715.79	79.495	-1161.3	522.49	113.44	-1139.5	531.99	252.55	-1222.5	391.79	91.649	-1173	295.68	119.54	-1231.2	313.62	94.347	-1162.4	371.8	111.36	-1281.5	106.87	127.63	-1255.6	115.75	225.92	-1351.8	73.06	171.84	-1341.9	48.146	204.9	-1342.9	47.346	142.78	-1134.1	41.825	108.74	-1109.1	48.259	231.35	-1047.1	62.227	179.52	-1351.2	1595.1	258.91	-1439.6	1287.2	284.32
59	0.24167	NaN	NaN	NaN	-1245.1	1535.9	419.86	-1268.2	1541.2	88.913	-1228.1	1855.5	235.08	NaN	NaN	NaN	NaN	NaN	NaN	-1414.7	1072.6	312.72	-1410.8	1068	209.36	-1262.8	982.58	499.67	-1263.2	972.56	70.465	-1270.9	1135.4	473.84	-1268.4	1102.6	70.904	-1425.6	1033.9	259.4	-1190.4	682.05	500.18	-1100.7	629.48	496.56	-1162.3	597.14	489.83	-1126.4	716.84	504.37	-1134.3	539.63	491.15	-1099.7	536.76	346.06	-1270.7	458.57	489.15	-1285.5	356.16	447.45	-1322.5	412.86	471.52	-1233.4	407.09	471.51	-1461.9	276.39	416.95	-1421	255.9	328.98	-1523.2	306.49	348.45	-1528.1	276.75	316.31	-1544.3	279.69	378.42	-1443.3	126.97	455.56	-1395.4	110.32	339.23	NaN	NaN	NaN	-1247.9	684.23	98.34	-1151.6	628.43	100.35	-1223.4	598	117.94	-1186.1	716.03	79.394	-1159.9	522.37	113.18	-1137.8	531.69	252.31	-1221.8	391.79	91.496	-1172.6	295.54	119.3	-1230.7	313.66	94.231	-1161.7	371.64	111.09	-1281.5	106.95	127.6	-1255.5	115.86	225.85	-1351.8	73.11	171.83	-1341.9	48.239	204.9	-1342.9	47.402	142.78	-1134.1	41.803	108.68	-1109.1	48.329	231.27	-1047.1	62.275	179.44	-1345.1	1596.2	258.45	-1433.8	1288.4	283.87
60	0.24583	NaN	NaN	NaN	-1239.7	1537.1	419.56	-1262.5	1542.3	88.577	-1222.6	1856.5	234.74	NaN	NaN	NaN	NaN	NaN	NaN	-1409	1073.8	312.81	-1405.3	1069.3	209.45	-1256.5	984.25	499.65	-1258	973.34	70.581	-1265.3	1137.1	473.5	-1262.5	1103.8	70.946	-1420	1035.2	259.55	-1181.8	684.02	500.09	-1091.8	632.23	495.74	-1153	599.37	489.52	-1118.1	719.39	503.83	-1124.7	541.94	490.45	-1090.4	539.66	345.36	-1260.2	458.73	488.31	-1273.4	356.13	446.45	-1311.2	412.18	470.63	-1222	407.9	470.72	-1448.3	273.48	415.9	-1407.1	253.81	328	-1510.3	302.46	347.46	-1514.6	272.49	315.23	-1530.8	275.04	377.47	-1426.3	124.77	454.6	-1378.2	109.03	338.16	NaN	NaN	NaN	-1245.3	684.95	98.336	-1149.4	628.36	100.17	-1221.4	598.51	117.83	-1183.3	716.27	79.301	-1158.6	522.26	112.94	-1136.2	531.37	252.09	-1221.1	391.79	91.349	-1172.1	295.4	119.07	-1230.2	313.7	94.116	-1161	371.49	110.84	-1281.4	107.02	127.57	-1255.4	115.97	225.78	-1351.8	73.163	171.83	-1341.9	48.336	204.89	-1342.9	47.461	142.78	-1134.1	41.778	108.62	-1109.1	48.396	231.2	-1047.1	62.318	179.37	-1339	1597.2	258.01	-1428.1	1289.7	283.44
61	0.25	-1121.8	1281.4	247.19	-1234.2	1538.3	419.27	-1256.7	1543.4	88.255	-1217	1857.6	234.44	NaN	NaN	NaN	NaN	NaN	NaN	-1403.2	1075	312.94	-1399.7	1070.4	209.58	-1250.3	985.88	499.65	-1252.8	974.09	70.713	-1259.6	1138.8	473.18	-1256.7	1104.9	70.986	-1414.4	1036.3	259.72	-1173.3	685.94	500	-1082.9	634.94	494.91	-1143.9	601.57	489.2	-1109.9	721.88	503.28	-1115.1	544.22	489.73	-1081.3	542.52	344.66	-1249.8	458.77	487.48	-1261.2	356.05	445.46	-1299.9	411.36	469.73	-1210.6	408.62	469.93	-1434.6	270.38	414.88	-1393.1	251.54	327.06	-1497.4	298.16	346.47	-1500.9	267.98	314.18	-1517.2	270.15	376.54	-1409.2	122.47	453.69	-1360.8	107.65	337.15	NaN	NaN	NaN	-1242.7	685.66	98.35	-1147.2	628.28	99.999	-1219.5	599.01	117.73	-1180.6	716.49	79.215	-1157.2	522.16	112.71	-1134.5	531.05	251.87	-1220.5	391.79	91.207	-1171.7	295.27	118.85	-1229.8	313.73	94.004	-1160.4	371.33	110.59	-1281.4	107.09	127.55	-1255.3	116.08	225.71	-1351.8	73.22	171.83	-1342	48.436	204.89	-1342.9	47.523	142.79	-1134.1	41.749	108.56	-1109.1	48.46	231.12	-1047.1	62.354	179.29	-1332.9	1598.2	257.59	-1422.3	1290.8	283.04
